# xmcd CD database file generated by OrangeCD 5.2
#
# Track frame offsets:
#	150
#	15451
#	27527
#	44178
#	56104
#	71480
#	88506
#	104407
#	117983
#	131934
#	143410
#	161261
#
# Disc length: 2395 seconds
#
# Revision: 0
# Processed by: cddbd v1.5.1PL2 Copyright (c) Steve Scherf et al.
# Submitted via: OrangeCD 5.2
#
DISCID=a809590c
DTITLE=Terra a Terra - Pelo Toque da Viola
DYEAR=1981
DGENRE=
TTITLE0=O Rapaz do Casaquito
TTITLE1=Pelo Toque da Viola
TTITLE2=Chula Rabela
TTITLE3=Olha o Passarinho!
TTITLE4=Gallandum
TTITLE5=Malhão de Arganil
TTITLE6=Que Queres te eu Taga
TTITLE7=Vá de Binga
TTITLE8=Sete Varas
TTITLE9=Peras e Pão
TTITLE10=Mariana
TTITLE11=Tirana, Atira!
EXTD=
EXTT0=
EXTT1=
EXTT2=
EXTT3=
EXTT4=
EXTT5=
EXTT6=
EXTT7=
EXTT8=
EXTT9=
EXTT10=
EXTT11=
PLAYORDER=
